# xmcd CD database file
#
# Track frame offsets:
#	183
#	22808
#	52373
#	74485
#	90105
#	105363
#	132613
#	150323
#	172050
#	193605
#	206580
#	223355
#
# Disc length: 3299 seconds
#
# Revision: 4
# Processed by: cddbd v1.5.2PL0 Copyright (c) Steve Scherf et al.
# Submitted via: CDex 1.51
#
DISCID=ab0ce10c
DTITLE=Johnny Copeland - Catch Up With The Blues
DYEAR=1993
DGENRE=Blues
TTITLE0=Catch Up With The Blues
TTITLE1=Rolling With The Punches
TTITLE2=Every Dog's Got His Day
TTITLE3=Cold, Cold Winter
TTITLE4=Making A Fool Of Myself
TTITLE5=Rain
TTITLE6=The Grammy Song
TTITLE7=Bye, Bye Baby
TTITLE8=Another Man's Wife
TTITLE9=I'm Creepin'
TTITLE10=Pedal To The Metal
TTITLE11=Life's Rainbow (Nature Song)
EXTD=YEAR: 1993
EXTT0=
EXTT1=
EXTT2=
EXTT3=
EXTT4=
EXTT5=
EXTT6=
EXTT7=
EXTT8=
EXTT9=
EXTT10=
EXTT11=
PLAYORDER=
